<svg xmlns="http://www.w3.org/2000/svg" viewBox="0 0 518 412" width="518" height="412">
<path fill="#000" fill-rule="evenodd" d="M 156 20 L 155 21 L 154 21 L 153 21 L 152 21 L 151 21 L 150 21 L 149 21 L 148 21 L 147 21 L 146 22 L 145 22 L 144 22 L 143 22 L 142 22 L 141 22 L 140 22 L 139 23 L 138 23 L 137 23 L 136 24 L 135 24 L 134 24 L 133 24 L 132 24 L 131 25 L 130 25 L 129 25 L 128 25 L 127 26 L 126 26 L 125 27 L 124 27 L 123 27 L 122 27 L 121 28 L 120 29 L 119 29 L 118 29 L 117 30 L 116 30 L 115 31 L 114 31 L 113 32 L 112 32 L 111 33 L 110 34 L 109 34 L 108 35 L 107 36 L 106 37 L 105 37 L 104 38 L 103 39 L 102 39 L 101 40 L 100 41 L 99 42 L 98 43 L 97 43 L 96 44 L 95 45 L 94 46 L 93 47 L 92 47 L 91 48 L 90 49 L 90 50 L 89 51 L 88 51 L 88 52 L 87 53 L 86 54 L 85 55 L 85 56 L 84 57 L 83 58 L 82 59 L 81 60 L 80 61 L 80 62 L 79 63 L 78 64 L 77 65 L 77 66 L 76 67 L 75 68 L 75 69 L 74 70 L 73 71 L 72 72 L 71 73 L 71 74 L 71 75 L 70 76 L 69 77 L 69 78 L 69 79 L 68 80 L 67 81 L 66 82 L 66 83 L 65 84 L 65 85 L 64 86 L 64 87 L 63 88 L 63 89 L 62 90 L 62 91 L 61 92 L 61 93 L 60 94 L 60 95 L 59 96 L 59 97 L 58 98 L 58 99 L 57 100 L 57 101 L 57 102 L 57 103 L 56 104 L 56 105 L 55 106 L 54 107 L 54 108 L 54 109 L 53 110 L 53 111 L 52 112 L 52 113 L 52 114 L 52 115 L 51 116 L 50 117 L 50 118 L 50 119 L 50 120 L 49 121 L 49 122 L 49 123 L 48 124 L 48 125 L 47 126 L 47 127 L 47 128 L 46 129 L 45 130 L 45 131 L 45 132 L 45 133 L 45 134 L 44 135 L 44 136 L 44 137 L 43 138 L 43 139 L 43 140 L 42 141 L 42 142 L 42 143 L 41 144 L 41 145 L 41 146 L 40 147 L 40 148 L 40 149 L 40 150 L 40 151 L 39 152 L 38 153 L 38 154 L 38 155 L 38 156 L 38 157 L 38 158 L 37 159 L 37 160 L 37 161 L 36 162 L 36 163 L 36 164 L 35 165 L 35 166 L 35 167 L 35 168 L 35 169 L 35 170 L 34 171 L 34 172 L 33 173 L 33 174 L 33 175 L 33 176 L 33 177 L 32 178 L 32 179 L 32 180 L 32 181 L 31 182 L 31 183 L 31 184 L 31 185 L 31 186 L 30 187 L 30 188 L 30 189 L 30 190 L 29 191 L 29 192 L 29 193 L 29 194 L 28 195 L 28 196 L 28 197 L 28 198 L 28 199 L 28 200 L 28 201 L 27 202 L 27 203 L 26 204 L 26 205 L 26 206 L 26 207 L 26 208 L 26 209 L 26 210 L 25 211 L 25 212 L 25 213 L 25 214 L 25 215 L 25 216 L 24 217 L 24 218 L 24 219 L 24 220 L 24 221 L 23 222 L 23 223 L 23 224 L 23 225 L 23 226 L 23 227 L 23 228 L 23 229 L 23 230 L 23 231 L 22 232 L 22 233 L 22 234 L 22 235 L 21 236 L 21 237 L 21 238 L 21 239 L 21 240 L 21 241 L 21 242 L 21 243 L 21 244 L 21 245 L 21 246 L 21 247 L 21 248 L 20 249 L 20 250 L 20 251 L 20 252 L 20 253 L 20 254 L 20 255 L 20 256 L 19 257 L 19 258 L 19 259 L 19 260 L 19 261 L 19 262 L 19 263 L 19 264 L 19 265 L 19 266 L 19 267 L 19 268 L 19 269 L 19 270 L 19 271 L 19 272 L 19 273 L 19 274 L 19 275 L 19 276 L 19 277 L 19 278 L 19 279 L 19 280 L 19 281 L 19 282 L 19 283 L 19 284 L 19 285 L 19 286 L 19 287 L 19 288 L 19 289 L 19 290 L 19 291 L 19 292 L 19 293 L 19 294 L 19 295 L 19 296 L 19 297 L 19 298 L 20 299 L 20 300 L 20 301 L 20 302 L 20 303 L 20 304 L 20 305 L 21 306 L 21 307 L 21 308 L 21 309 L 21 310 L 21 311 L 21 312 L 21 313 L 22 314 L 22 315 L 23 316 L 23 317 L 23 318 L 23 319 L 23 320 L 23 321 L 23 322 L 23 323 L 24 324 L 25 325 L 25 326 L 25 327 L 25 328 L 26 329 L 26 330 L 26 331 L 27 332 L 27 333 L 28 334 L 28 335 L 28 336 L 29 337 L 30 338 L 30 339 L 30 340 L 31 341 L 31 342 L 32 343 L 33 344 L 33 345 L 33 346 L 34 347 L 35 348 L 35 349 L 36 350 L 37 351 L 38 352 L 39 353 L 39 354 L 40 355 L 40 356 L 41 356 L 42 357 L 43 358 L 43 359 L 44 359 L 45 360 L 46 361 L 47 361 L 48 362 L 49 363 L 50 364 L 51 364 L 52 365 L 53 365 L 54 366 L 55 366 L 56 367 L 57 368 L 58 368 L 59 368 L 60 369 L 61 369 L 62 370 L 63 370 L 64 370 L 65 371 L 66 371 L 67 371 L 68 371 L 69 371 L 70 372 L 71 372 L 72 372 L 73 372 L 74 372 L 75 373 L 76 373 L 77 373 L 78 373 L 79 373 L 80 373 L 81 373 L 82 373 L 83 373 L 84 373 L 85 372 L 86 372 L 87 372 L 88 372 L 89 372 L 90 372 L 91 371 L 92 371 L 93 371 L 94 371 L 95 371 L 96 371 L 97 371 L 98 370 L 99 369 L 100 369 L 101 369 L 102 369 L 103 368 L 104 368 L 105 367 L 106 367 L 107 366 L 108 366 L 109 366 L 110 365 L 111 364 L 112 363 L 113 363 L 114 362 L 115 361 L 116 361 L 117 361 L 118 360 L 119 359 L 120 359 L 120 358 L 121 357 L 122 357 L 123 356 L 124 355 L 125 354 L 126 354 L 127 353 L 128 352 L 129 351 L 130 350 L 131 349 L 132 348 L 133 347 L 134 347 L 135 346 L 136 345 L 137 344 L 138 343 L 138 342 L 139 341 L 140 340 L 141 339 L 142 338 L 143 337 L 143 336 L 144 335 L 145 335 L 145 334 L 146 333 L 147 332 L 148 331 L 149 330 L 150 329 L 150 328 L 151 327 L 152 327 L 152 326 L 153 325 L 154 324 L 154 323 L 155 322 L 156 321 L 157 320 L 158 319 L 159 318 L 160 317 L 161 316 L 162 316 L 163 315 L 164 314 L 165 313 L 166 313 L 166 312 L 167 311 L 168 311 L 169 310 L 170 309 L 171 309 L 172 308 L 173 307 L 174 307 L 175 306 L 176 306 L 177 306 L 178 305 L 179 304 L 180 304 L 181 304 L 182 303 L 183 302 L 184 302 L 185 302 L 186 301 L 187 301 L 188 301 L 189 300 L 190 300 L 191 299 L 192 299 L 193 299 L 194 299 L 195 298 L 196 298 L 197 298 L 198 297 L 199 297 L 200 297 L 201 297 L 202 297 L 203 297 L 204 296 L 205 296 L 206 296 L 207 296 L 208 296 L 209 296 L 210 295 L 211 295 L 212 295 L 213 295 L 214 295 L 215 294 L 216 294 L 217 294 L 218 294 L 219 294 L 220 294 L 221 294 L 222 294 L 223 294 L 224 294 L 225 293 L 226 293 L 227 293 L 228 293 L 229 293 L 230 293 L 231 293 L 232 293 L 233 293 L 234 293 L 235 292 L 236 292 L 237 292 L 238 292 L 239 292 L 240 292 L 241 292 L 242 292 L 243 292 L 244 292 L 245 292 L 246 292 L 247 292 L 248 292 L 249 292 L 250 292 L 251 292 L 252 292 L 253 292 L 254 292 L 255 292 L 256 292 L 257 292 L 258 292 L 259 292 L 260 292 L 261 292 L 262 292 L 263 292 L 264 292 L 265 292 L 266 292 L 267 292 L 268 292 L 269 292 L 270 292 L 271 292 L 272 292 L 273 292 L 274 292 L 275 292 L 276 292 L 277 292 L 278 292 L 279 292 L 280 292 L 281 292 L 282 292 L 283 292 L 284 292 L 285 293 L 286 293 L 287 293 L 288 293 L 289 293 L 290 293 L 291 294 L 292 294 L 293 294 L 294 294 L 295 294 L 296 294 L 297 294 L 298 294 L 299 294 L 300 294 L 301 294 L 302 294 L 303 294 L 304 294 L 305 295 L 306 295 L 307 295 L 308 295 L 309 295 L 310 296 L 311 296 L 312 296 L 313 296 L 314 296 L 315 296 L 316 296 L 317 297 L 318 297 L 319 297 L 320 297 L 321 298 L 322 298 L 323 298 L 324 299 L 325 299 L 326 299 L 327 299 L 328 300 L 329 300 L 330 301 L 331 301 L 332 301 L 333 301 L 334 302 L 335 302 L 336 303 L 337 304 L 338 304 L 339 304 L 340 305 L 341 306 L 342 306 L 343 306 L 344 307 L 345 308 L 346 309 L 347 309 L 348 310 L 349 311 L 350 311 L 351 312 L 352 313 L 353 314 L 354 314 L 355 315 L 356 316 L 357 317 L 358 318 L 359 319 L 360 320 L 361 321 L 362 322 L 363 323 L 364 324 L 365 325 L 366 326 L 367 327 L 367 328 L 368 329 L 369 330 L 370 331 L 371 332 L 372 333 L 372 334 L 373 335 L 374 336 L 375 337 L 376 338 L 377 339 L 378 340 L 379 341 L 380 342 L 381 343 L 382 344 L 383 345 L 384 346 L 385 347 L 386 348 L 387 349 L 388 350 L 389 351 L 390 352 L 391 353 L 392 354 L 393 355 L 394 355 L 395 356 L 396 357 L 397 357 L 398 358 L 399 359 L 400 360 L 401 361 L 402 361 L 403 361 L 404 362 L 405 363 L 406 364 L 407 364 L 408 365 L 409 365 L 410 366 L 411 366 L 412 366 L 413 366 L 414 367 L 415 368 L 416 368 L 417 368 L 418 369 L 419 369 L 420 370 L 421 370 L 422 370 L 423 371 L 424 371 L 425 371 L 426 371 L 427 371 L 428 372 L 429 372 L 430 372 L 431 372 L 432 373 L 433 373 L 434 373 L 435 373 L 436 373 L 437 373 L 438 373 L 439 373 L 440 373 L 441 373 L 442 373 L 443 373 L 444 373 L 445 373 L 446 372 L 447 372 L 448 372 L 449 371 L 450 371 L 451 371 L 452 371 L 453 371 L 454 371 L 455 370 L 456 370 L 457 369 L 458 369 L 459 368 L 460 368 L 461 368 L 462 368 L 463 367 L 464 366 L 465 366 L 466 365 L 467 364 L 468 364 L 469 363 L 470 363 L 471 362 L 472 361 L 473 361 L 474 360 L 475 359 L 476 358 L 477 358 L 477 357 L 478 356 L 479 356 L 479 355 L 480 354 L 481 353 L 482 352 L 482 351 L 483 350 L 484 349 L 485 348 L 486 347 L 486 346 L 486 345 L 487 344 L 487 343 L 488 342 L 489 341 L 490 340 L 490 339 L 490 338 L 491 337 L 491 336 L 491 335 L 492 334 L 493 333 L 493 332 L 493 331 L 493 330 L 494 329 L 494 328 L 495 327 L 495 326 L 495 325 L 495 324 L 496 323 L 496 322 L 496 321 L 496 320 L 497 319 L 497 318 L 497 317 L 498 316 L 498 315 L 498 314 L 498 313 L 498 312 L 498 311 L 498 310 L 498 309 L 499 308 L 499 307 L 499 306 L 499 305 L 499 304 L 499 303 L 499 302 L 500 301 L 500 300 L 500 299 L 500 298 L 500 297 L 500 296 L 500 295 L 500 294 L 500 293 L 500 292 L 500 291 L 500 290 L 500 289 L 500 288 L 500 287 L 500 286 L 500 285 L 500 284 L 500 283 L 500 282 L 500 281 L 500 280 L 500 279 L 500 278 L 500 277 L 500 276 L 500 275 L 500 274 L 500 273 L 500 272 L 500 271 L 500 270 L 500 269 L 500 268 L 500 267 L 500 266 L 500 265 L 500 264 L 500 263 L 499 262 L 499 261 L 499 260 L 499 259 L 499 258 L 499 257 L 499 256 L 499 255 L 499 254 L 499 253 L 499 252 L 498 251 L 498 250 L 498 249 L 498 248 L 498 247 L 498 246 L 498 245 L 498 244 L 498 243 L 498 242 L 497 241 L 497 240 L 497 239 L 497 238 L 497 237 L 496 236 L 496 235 L 496 234 L 496 233 L 496 232 L 496 231 L 496 230 L 496 229 L 496 228 L 496 227 L 495 226 L 495 225 L 495 224 L 494 223 L 494 222 L 494 221 L 494 220 L 494 219 L 494 218 L 494 217 L 493 216 L 493 215 L 493 214 L 493 213 L 493 212 L 493 211 L 492 210 L 492 209 L 492 208 L 492 207 L 491 206 L 491 205 L 491 204 L 491 203 L 491 202 L 491 201 L 491 200 L 490 199 L 490 198 L 490 197 L 489 196 L 489 195 L 489 194 L 489 193 L 489 192 L 489 191 L 488 190 L 488 189 L 488 188 L 488 187 L 487 186 L 487 185 L 487 184 L 487 183 L 487 182 L 486 181 L 486 180 L 486 179 L 486 178 L 485 177 L 485 176 L 485 175 L 484 174 L 484 173 L 484 172 L 484 171 L 484 170 L 484 169 L 483 168 L 483 167 L 482 166 L 482 165 L 482 164 L 482 163 L 482 162 L 482 161 L 481 160 L 481 159 L 481 158 L 480 157 L 480 156 L 480 155 L 480 154 L 479 153 L 479 152 L 479 151 L 479 150 L 478 149 L 477 148 L 477 147 L 477 146 L 477 145 L 477 144 L 476 143 L 476 142 L 476 141 L 475 140 L 475 139 L 475 138 L 475 137 L 474 136 L 474 135 L 473 134 L 473 133 L 473 132 L 472 131 L 472 130 L 472 129 L 472 128 L 472 127 L 471 126 L 470 125 L 470 124 L 470 123 L 469 122 L 469 121 L 469 120 L 468 119 L 468 118 L 467 117 L 467 116 L 467 115 L 467 114 L 466 113 L 465 112 L 465 111 L 465 110 L 464 109 L 463 108 L 463 107 L 463 106 L 463 105 L 462 104 L 462 103 L 461 102 L 461 101 L 460 100 L 460 99 L 460 98 L 459 97 L 458 96 L 458 95 L 458 94 L 457 93 L 456 92 L 456 91 L 455 90 L 455 89 L 455 88 L 454 87 L 453 86 L 453 85 L 453 84 L 452 83 L 451 82 L 451 81 L 450 80 L 450 79 L 449 78 L 448 77 L 448 76 L 447 75 L 446 74 L 446 73 L 445 72 L 444 71 L 444 70 L 443 69 L 443 68 L 442 67 L 441 66 L 441 65 L 440 64 L 439 63 L 438 62 L 438 61 L 437 61 L 436 60 L 436 59 L 435 58 L 434 57 L 434 56 L 433 55 L 432 54 L 431 53 L 430 52 L 429 51 L 428 50 L 427 49 L 426 48 L 425 47 L 424 46 L 423 45 L 422 44 L 421 43 L 420 42 L 419 41 L 418 41 L 417 40 L 416 39 L 415 38 L 414 38 L 413 37 L 412 36 L 411 36 L 410 35 L 409 34 L 408 34 L 407 34 L 406 33 L 405 32 L 404 31 L 403 30 L 402 30 L 401 30 L 400 30 L 399 29 L 398 28 L 397 28 L 396 28 L 395 27 L 394 27 L 393 27 L 392 26 L 391 26 L 390 26 L 389 25 L 388 25 L 387 25 L 386 24 L 385 24 L 384 24 L 383 24 L 382 24 L 381 23 L 380 23 L 379 23 L 378 23 L 377 22 L 376 22 L 375 22 L 374 22 L 373 22 L 372 21 L 371 21 L 370 21 L 369 21 L 368 21 L 367 21 L 366 21 L 365 21 L 364 21 L 363 20 L 362 20 L 361 20 L 360 20 L 359 20 L 358 20 L 357 20 L 356 20 L 355 20 L 354 20 L 353 20 L 352 20 L 351 20 L 350 20 L 349 20 L 348 21 L 347 21 L 346 21 L 345 21 L 344 21 L 343 21 L 342 22 L 341 22 L 340 22 L 339 22 L 338 22 L 337 22 L 336 22 L 335 22 L 334 23 L 333 23 L 332 23 L 331 23 L 330 24 L 329 24 L 328 24 L 327 25 L 326 25 L 325 25 L 324 25 L 323 26 L 322 26 L 321 26 L 320 26 L 319 27 L 318 27 L 317 27 L 316 27 L 315 28 L 314 29 L 313 29 L 312 29 L 311 29 L 310 29 L 309 29 L 308 30 L 307 30 L 306 30 L 305 30 L 304 31 L 303 31 L 302 31 L 301 32 L 300 32 L 299 32 L 298 32 L 297 32 L 296 32 L 295 33 L 294 33 L 293 33 L 292 34 L 291 34 L 290 34 L 289 34 L 288 34 L 287 34 L 286 34 L 285 34 L 284 34 L 283 34 L 282 35 L 281 35 L 280 35 L 279 36 L 278 36 L 277 36 L 276 36 L 275 36 L 274 36 L 273 36 L 272 36 L 271 36 L 270 36 L 269 36 L 268 36 L 267 36 L 266 36 L 265 36 L 264 36 L 263 36 L 262 36 L 261 36 L 260 36 L 259 36 L 258 36 L 257 36 L 256 36 L 255 36 L 254 36 L 253 36 L 252 36 L 251 36 L 250 36 L 249 36 L 248 36 L 247 36 L 246 36 L 245 36 L 244 36 L 243 36 L 242 36 L 241 35 L 240 35 L 239 35 L 238 35 L 237 35 L 236 35 L 235 35 L 234 34 L 233 34 L 232 34 L 231 34 L 230 34 L 229 34 L 228 34 L 227 34 L 226 34 L 225 33 L 224 33 L 223 32 L 222 32 L 221 32 L 220 32 L 219 32 L 218 32 L 217 32 L 216 31 L 215 31 L 214 31 L 213 30 L 212 30 L 211 30 L 210 30 L 209 29 L 208 29 L 207 29 L 206 29 L 205 28 L 204 28 L 203 28 L 202 27 L 201 27 L 200 27 L 199 27 L 198 26 L 197 26 L 196 26 L 195 25 L 194 25 L 193 25 L 192 25 L 191 24 L 190 24 L 189 24 L 188 24 L 187 23 L 186 23 L 185 23 L 184 23 L 183 22 L 182 22 L 181 22 L 180 22 L 179 22 L 178 21 L 177 21 L 176 21 L 175 21 L 174 21 L 173 21 L 172 20 L 171 20 L 170 20 L 169 20 L 168 20 L 167 20 L 166 20 L 165 20 L 164 20 L 163 20 L 162 20 L 161 20 L 160 20 L 159 20 L 158 20 L 157 20 Z M 333 189 L 334 188 L 335 188 L 336 188 L 337 188 L 338 188 L 339 188 L 340 188 L 341 188 L 342 188 L 343 188 L 344 188 L 345 188 L 346 189 L 347 189 L 348 189 L 349 190 L 350 190 L 351 191 L 352 191 L 353 192 L 354 193 L 355 194 L 356 195 L 357 196 L 358 197 L 358 198 L 358 199 L 359 200 L 360 201 L 360 202 L 360 203 L 360 204 L 361 205 L 361 206 L 361 207 L 361 208 L 361 209 L 361 210 L 361 211 L 360 212 L 360 213 L 360 214 L 360 215 L 360 216 L 359 217 L 358 218 L 358 219 L 358 220 L 357 221 L 356 222 L 355 223 L 354 224 L 353 225 L 352 226 L 351 226 L 350 227 L 349 228 L 348 228 L 347 228 L 346 228 L 345 229 L 344 229 L 343 229 L 342 230 L 341 230 L 340 230 L 339 230 L 338 230 L 337 230 L 336 230 L 335 229 L 334 229 L 333 228 L 332 228 L 331 228 L 330 227 L 329 226 L 328 225 L 327 225 L 326 224 L 325 223 L 324 222 L 323 221 L 322 220 L 322 219 L 322 218 L 321 217 L 320 216 L 320 215 L 320 214 L 319 213 L 319 212 L 319 211 L 319 210 L 319 209 L 319 208 L 319 207 L 319 206 L 319 205 L 319 204 L 320 203 L 320 202 L 321 201 L 321 200 L 321 199 L 322 198 L 323 197 L 324 196 L 324 195 L 325 194 L 326 193 L 327 193 L 328 192 L 329 191 L 330 190 L 331 190 L 332 189 Z M 384 144 L 385 143 L 386 143 L 387 143 L 388 144 L 389 144 L 390 144 L 391 144 L 392 144 L 393 145 L 394 146 L 395 147 L 396 147 L 397 148 L 398 148 L 399 149 L 400 150 L 400 151 L 401 152 L 402 153 L 403 154 L 403 155 L 403 156 L 404 157 L 405 158 L 405 159 L 405 160 L 405 161 L 405 162 L 405 163 L 405 164 L 405 165 L 405 166 L 405 167 L 405 168 L 405 169 L 404 170 L 404 171 L 404 172 L 403 173 L 403 174 L 403 175 L 402 176 L 401 177 L 400 178 L 399 179 L 398 180 L 397 181 L 396 182 L 395 182 L 394 183 L 393 183 L 392 184 L 391 184 L 390 184 L 389 184 L 388 185 L 387 185 L 386 185 L 385 185 L 384 185 L 383 185 L 382 185 L 381 185 L 380 185 L 379 185 L 378 184 L 377 184 L 376 183 L 375 183 L 374 182 L 373 182 L 372 181 L 371 180 L 370 179 L 369 178 L 368 177 L 367 176 L 367 175 L 366 174 L 365 173 L 365 172 L 364 171 L 364 170 L 364 169 L 364 168 L 364 167 L 364 166 L 364 165 L 364 164 L 364 163 L 364 162 L 364 161 L 364 160 L 364 159 L 364 158 L 365 157 L 365 156 L 366 155 L 366 154 L 367 153 L 368 152 L 369 151 L 369 150 L 370 149 L 371 148 L 372 148 L 373 147 L 374 146 L 375 146 L 376 145 L 377 144 L 378 144 L 379 144 L 380 144 L 381 144 L 382 144 L 383 144 Z M 294 144 L 295 143 L 296 143 L 297 143 L 298 143 L 299 144 L 300 144 L 301 144 L 302 144 L 303 144 L 304 145 L 305 146 L 306 146 L 307 146 L 308 147 L 309 148 L 310 149 L 311 150 L 312 151 L 313 152 L 313 153 L 314 154 L 315 155 L 315 156 L 316 157 L 316 158 L 316 159 L 316 160 L 317 161 L 317 162 L 317 163 L 317 164 L 317 165 L 317 166 L 317 167 L 317 168 L 316 169 L 315 170 L 315 171 L 315 172 L 315 173 L 314 174 L 313 175 L 312 176 L 312 177 L 312 178 L 311 179 L 310 180 L 309 180 L 308 181 L 307 182 L 306 182 L 305 183 L 304 183 L 303 184 L 302 184 L 301 184 L 300 185 L 299 185 L 298 185 L 297 185 L 296 185 L 295 185 L 294 185 L 293 185 L 292 185 L 291 185 L 290 185 L 289 184 L 288 184 L 287 183 L 286 183 L 285 182 L 284 182 L 283 181 L 282 180 L 281 179 L 280 178 L 279 177 L 278 176 L 278 175 L 277 174 L 277 173 L 276 172 L 276 171 L 276 170 L 276 169 L 275 168 L 275 167 L 275 166 L 275 165 L 275 164 L 275 163 L 275 162 L 275 161 L 275 160 L 275 159 L 276 158 L 276 157 L 276 156 L 277 155 L 278 154 L 278 153 L 279 152 L 280 151 L 281 150 L 282 149 L 283 148 L 284 147 L 285 146 L 286 146 L 287 146 L 288 145 L 289 144 L 290 144 L 291 144 L 292 144 L 293 144 Z M 334 100 L 335 99 L 336 99 L 337 99 L 338 99 L 339 99 L 340 99 L 341 99 L 342 99 L 343 99 L 344 99 L 345 100 L 346 100 L 347 100 L 348 100 L 349 101 L 350 102 L 351 103 L 352 103 L 353 103 L 354 104 L 355 105 L 356 106 L 357 107 L 357 108 L 358 109 L 358 110 L 359 111 L 359 112 L 360 113 L 360 114 L 361 115 L 361 116 L 361 117 L 361 118 L 361 119 L 361 120 L 361 121 L 361 122 L 361 123 L 360 124 L 360 125 L 360 126 L 360 127 L 360 128 L 359 129 L 358 130 L 357 131 L 357 132 L 356 133 L 356 134 L 355 135 L 354 136 L 353 136 L 352 137 L 351 137 L 350 138 L 349 139 L 348 139 L 347 140 L 346 140 L 345 140 L 344 140 L 343 140 L 342 141 L 341 141 L 340 141 L 339 141 L 338 141 L 337 141 L 336 140 L 335 140 L 334 140 L 333 140 L 332 140 L 331 139 L 330 138 L 329 138 L 328 137 L 327 136 L 326 135 L 325 134 L 324 133 L 323 132 L 322 131 L 322 130 L 321 129 L 321 128 L 321 127 L 320 126 L 320 125 L 319 124 L 319 123 L 319 122 L 319 121 L 319 120 L 319 119 L 319 118 L 319 117 L 319 116 L 319 115 L 320 114 L 321 113 L 321 112 L 321 111 L 322 110 L 322 109 L 323 108 L 324 107 L 325 106 L 326 105 L 327 104 L 328 103 L 329 102 L 330 101 L 331 101 L 332 101 L 333 100 Z M 156 100 L 157 99 L 158 99 L 159 99 L 160 99 L 161 99 L 162 99 L 163 99 L 164 99 L 165 99 L 166 99 L 167 99 L 168 100 L 169 100 L 170 101 L 171 102 L 172 102 L 173 103 L 174 103 L 175 104 L 176 105 L 176 106 L 177 107 L 178 108 L 178 109 L 179 110 L 179 111 L 179 112 L 179 113 L 179 114 L 180 115 L 180 116 L 180 117 L 180 118 L 180 119 L 180 120 L 180 121 L 180 122 L 180 123 L 180 124 L 180 125 L 180 126 L 180 127 L 180 128 L 180 129 L 180 130 L 180 131 L 180 132 L 180 133 L 180 134 L 180 135 L 180 136 L 180 137 L 180 138 L 180 139 L 180 140 L 180 141 L 180 142 L 180 143 L 180 144 L 180 145 L 180 146 L 180 147 L 181 147 L 182 147 L 183 147 L 184 147 L 185 147 L 186 147 L 187 147 L 188 147 L 189 147 L 190 147 L 191 147 L 192 147 L 193 147 L 194 147 L 195 147 L 196 147 L 197 147 L 198 147 L 199 147 L 200 147 L 201 147 L 202 147 L 203 147 L 204 147 L 205 147 L 206 147 L 207 147 L 208 147 L 209 147 L 210 147 L 211 147 L 212 147 L 213 148 L 214 148 L 215 148 L 216 148 L 217 148 L 218 148 L 219 149 L 219 150 L 220 151 L 221 151 L 222 151 L 223 152 L 224 153 L 225 154 L 225 155 L 226 156 L 226 157 L 227 158 L 227 159 L 228 160 L 228 161 L 228 162 L 228 163 L 228 164 L 228 165 L 228 166 L 228 167 L 228 168 L 227 169 L 227 170 L 226 171 L 226 172 L 226 173 L 225 174 L 224 175 L 223 176 L 222 177 L 221 178 L 220 178 L 219 179 L 218 180 L 217 180 L 216 180 L 215 181 L 214 181 L 213 181 L 212 181 L 211 181 L 210 181 L 209 181 L 208 181 L 207 181 L 206 181 L 205 181 L 204 181 L 203 181 L 202 181 L 201 181 L 200 181 L 199 181 L 198 181 L 197 181 L 196 181 L 195 181 L 194 181 L 193 181 L 192 181 L 191 181 L 190 181 L 189 181 L 188 181 L 187 181 L 186 181 L 185 181 L 184 181 L 183 181 L 182 181 L 181 181 L 180 181 L 180 182 L 180 183 L 180 184 L 180 185 L 180 186 L 180 187 L 180 188 L 180 189 L 180 190 L 180 191 L 180 192 L 180 193 L 180 194 L 180 195 L 180 196 L 180 197 L 180 198 L 180 199 L 180 200 L 180 201 L 180 202 L 180 203 L 180 204 L 180 205 L 180 206 L 180 207 L 180 208 L 180 209 L 180 210 L 180 211 L 180 212 L 180 213 L 180 214 L 179 215 L 179 216 L 179 217 L 179 218 L 178 219 L 178 220 L 177 221 L 177 222 L 176 223 L 175 224 L 174 225 L 173 226 L 172 227 L 171 227 L 170 228 L 169 228 L 168 229 L 167 229 L 166 229 L 165 230 L 164 230 L 163 230 L 162 230 L 161 230 L 160 230 L 159 230 L 158 229 L 157 228 L 156 228 L 155 228 L 154 227 L 153 226 L 152 226 L 151 225 L 150 224 L 150 223 L 149 222 L 148 221 L 147 220 L 147 219 L 147 218 L 147 217 L 146 216 L 146 215 L 146 214 L 145 213 L 145 212 L 145 211 L 145 210 L 145 209 L 145 208 L 145 207 L 145 206 L 145 205 L 145 204 L 145 203 L 145 202 L 145 201 L 145 200 L 145 199 L 145 198 L 145 197 L 145 196 L 145 195 L 145 194 L 145 193 L 145 192 L 145 191 L 145 190 L 145 189 L 145 188 L 145 187 L 145 186 L 145 185 L 145 184 L 145 183 L 145 182 L 145 181 L 144 181 L 143 181 L 142 181 L 141 181 L 140 181 L 139 181 L 138 181 L 137 181 L 136 181 L 135 181 L 134 181 L 133 181 L 132 181 L 131 181 L 130 181 L 129 181 L 128 181 L 127 181 L 126 181 L 125 181 L 124 181 L 123 181 L 122 181 L 121 181 L 120 181 L 119 181 L 118 181 L 117 181 L 116 181 L 115 181 L 114 181 L 113 181 L 112 181 L 111 181 L 110 180 L 109 180 L 108 180 L 107 180 L 106 179 L 105 178 L 104 178 L 103 177 L 102 176 L 102 175 L 101 174 L 100 173 L 100 172 L 99 171 L 98 170 L 98 169 L 98 168 L 98 167 L 97 166 L 97 165 L 97 164 L 97 163 L 97 162 L 97 161 L 98 160 L 98 159 L 99 158 L 99 157 L 99 156 L 100 155 L 101 154 L 102 153 L 103 152 L 104 151 L 105 150 L 106 149 L 107 149 L 108 148 L 109 148 L 110 148 L 111 148 L 112 147 L 113 147 L 114 147 L 115 147 L 116 147 L 117 147 L 118 147 L 119 147 L 120 147 L 121 147 L 122 147 L 123 147 L 124 147 L 125 147 L 126 147 L 127 147 L 128 147 L 129 147 L 130 147 L 131 147 L 132 147 L 133 147 L 134 147 L 135 147 L 136 147 L 137 147 L 138 147 L 139 147 L 140 147 L 141 147 L 142 147 L 143 147 L 144 147 L 145 147 L 145 146 L 145 145 L 145 144 L 145 143 L 145 142 L 145 141 L 145 140 L 145 139 L 145 138 L 145 137 L 145 136 L 145 135 L 145 134 L 145 133 L 145 132 L 145 131 L 145 130 L 145 129 L 145 128 L 145 127 L 145 126 L 145 125 L 145 124 L 145 123 L 145 122 L 145 121 L 145 120 L 145 119 L 145 118 L 145 117 L 145 116 L 146 115 L 146 114 L 146 113 L 147 112 L 147 111 L 147 110 L 147 109 L 147 108 L 148 107 L 149 106 L 150 105 L 151 104 L 152 103 L 153 102 L 154 101 L 155 101 Z"/>
</svg>